<svg width="359" height="380" viewBox="0 0 359 380" fill="none" xmlns="http://www.w3.org/2000/svg">
<g filter="url(#filter0_d)">
<path d="M105.12 207.952C105.12 211.837 105.682 215.414 106.807 218.686C107.931 221.855 109.465 224.615 111.407 226.966C113.452 229.215 115.854 231.004 118.614 232.333C121.476 233.662 124.543 234.326 127.815 234.326C131.392 234.326 134.613 233.509 137.475 231.873C140.44 230.237 142.944 227.937 144.989 224.973C147.135 221.906 148.771 218.277 149.895 214.086C151.122 209.792 151.736 205.038 151.736 199.825C151.736 194.611 151.122 189.858 149.895 185.564C148.669 181.169 146.982 177.437 144.835 174.37C142.688 171.201 140.082 168.748 137.015 167.01C134.05 165.272 130.779 164.403 127.201 164.403C123.01 164.403 119.279 165.426 116.007 167.47C112.736 169.412 110.232 172.173 108.494 175.751C106.245 180.249 105.12 186.433 105.12 194.305L105.12 207.952ZM104.814 169.617L105.427 169.617C108.698 165.323 112.276 162.206 116.161 160.263C120.148 158.219 124.748 157.196 129.961 157.196C135.482 157.196 140.593 158.27 145.295 160.417C150.1 162.563 154.24 165.528 157.716 169.31C161.294 173.093 164.054 177.591 165.996 182.804C168.041 187.916 169.063 193.436 169.063 199.365C169.063 205.396 168.041 211.019 165.996 216.232C163.952 221.344 161.14 225.79 157.562 229.573C154.087 233.355 149.947 236.32 145.142 238.467C140.337 240.613 135.124 241.687 129.501 241.687C123.674 241.687 118.205 240.613 113.094 238.467C108.085 236.32 103.945 233.406 100.673 229.726L93.4664 240L90.0929 240L90.0929 147.383C90.0929 137.058 89.4284 130.464 88.0995 127.602C87.7928 126.886 87.435 126.324 87.0261 125.915C86.6172 125.404 86.0038 124.995 85.186 124.688C84.3682 124.279 83.2437 123.922 81.8125 123.615C80.3813 123.308 78.439 123.002 75.9856 122.695L75.9856 118.861L104.814 112.728L104.814 169.617ZM208.67 169.77L209.284 169.77C212.555 165.886 216.082 162.819 219.864 160.57C223.646 158.321 228.042 157.196 233.051 157.196C238.878 157.196 244.194 158.27 248.999 160.417C253.906 162.461 258.148 165.375 261.726 169.157C265.304 172.939 268.064 177.437 270.006 182.651C272.051 187.762 273.073 193.385 273.073 199.518C273.073 205.754 272.051 211.479 270.006 216.692C267.962 221.804 265.15 226.199 261.573 229.88C257.995 233.56 253.752 236.422 248.845 238.467C243.938 240.511 238.623 241.533 232.898 241.533C228.196 241.533 223.902 240.767 220.017 239.233C216.235 237.598 212.657 234.991 209.284 231.413L209.284 253.801C209.284 257.89 209.488 261.161 209.897 263.614C210.306 266.068 211.124 267.959 212.35 269.288C213.577 270.617 215.315 271.537 217.564 272.048C219.915 272.559 222.982 272.866 226.764 272.968L226.764 278.335L179.536 278.335L179.536 272.968C182.602 272.866 185.056 272.559 186.896 272.048C188.838 271.537 190.321 270.617 191.343 269.288C192.467 267.959 193.234 266.119 193.643 263.768C194.052 261.519 194.256 258.554 194.256 254.874L194.256 197.525C194.256 191.596 194.154 186.74 193.95 182.958C193.847 179.175 193.592 176.568 193.183 175.137C192.672 172.684 191.496 171.048 189.656 170.23C187.816 169.31 184.34 168.85 179.229 168.85L179.229 163.637L208.67 157.81L208.67 169.77ZM213.27 174.217C211.941 176.262 210.919 178.715 210.204 181.577C209.59 184.338 209.284 187.967 209.284 192.465L209.284 204.425C209.284 207.185 209.335 209.588 209.437 211.632C209.641 213.574 209.897 215.261 210.204 216.692C210.51 218.123 210.919 219.401 211.43 220.526C211.941 221.65 212.606 222.724 213.424 223.746C215.775 227.017 218.586 229.573 221.857 231.413C225.129 233.151 228.553 234.02 232.131 234.02C239.185 234.02 244.858 231.055 249.152 225.126C253.548 219.197 255.746 210.865 255.746 200.132C255.746 194.816 255.132 190.011 253.906 185.718C252.781 181.322 251.145 177.591 248.999 174.524C246.852 171.355 244.245 168.901 241.178 167.163C238.214 165.426 234.891 164.557 231.211 164.557C227.531 164.557 224.106 165.426 220.937 167.163C217.871 168.799 215.315 171.15 213.27 174.217Z" fill="#4472C4"/>
<path fill-rule="evenodd" clip-rule="evenodd" d="M327.841 186C327.841 273.813 256.654 345 168.841 345C122.723 345 81.1907 325.366 52.1477 294H17.3897C51.1219 341.219 106.387 372 168.841 372C271.566 372 354.841 288.725 354.841 186C354.841 83.275 271.566 0 168.841 0C110.448 0 58.3405 26.9076 24.2402 69H61.1732C89.4948 42.9242 127.308 27 168.841 27C256.654 27 327.841 98.1867 327.841 186Z" fill="url(#paint0_linear)"/>
<path d="M49.1705 225.763C49.1705 231.258 49.3818 235.696 49.8045 239.077C50.3681 242.318 51.4248 244.924 52.9746 246.897C54.5244 248.729 56.7083 249.997 59.5261 250.701C62.4849 251.406 66.3595 251.828 71.1498 251.969V260H6.4798V251.969C11.1293 251.828 14.863 251.406 17.6808 250.701C20.6396 249.856 22.8939 248.588 24.4437 246.897C26.1344 245.065 27.1911 242.6 27.6138 239.5C28.1774 236.259 28.4592 232.174 28.4592 227.242V149.681C28.4592 141.509 28.3887 134.746 28.2478 129.392C28.2478 124.038 28.0365 120.516 27.6138 118.825C26.9093 115.725 24.7959 113.823 21.2736 113.119C17.7513 112.414 12.4678 112.062 5.4231 112.062V104.031C12.3269 103.749 19.5829 102.833 27.1911 101.284C34.9403 99.5929 42.2667 97.55 49.1705 95.1548V225.763Z" fill="#4472C4"/>
</g>
<defs>
<filter id="filter0_d" x="-4" y="0" width="366.841" height="388" filterUnits="userSpaceOnUse" color-interpolation-filters="sRGB">
<feFlood flood-opacity="0" result="BackgroundImageFix"/>
<feColorMatrix in="SourceAlpha" type="matrix" values="0 0 0 0 0 0 0 0 0 0 0 0 0 0 0 0 0 0 127 0"/>
<feOffset dy="4"/>
<feGaussianBlur stdDeviation="2"/>
<feColorMatrix type="matrix" values="0 0 0 0 0 0 0 0 0 0 0 0 0 0 0 0 0 0 0.25 0"/>
<feBlend mode="normal" in2="BackgroundImageFix" result="effect1_dropShadow"/>
<feBlend mode="normal" in="SourceGraphic" in2="effect1_dropShadow" result="shape"/>
</filter>
<linearGradient id="paint0_linear" x1="224.5" y1="186" x2="17" y2="186" gradientUnits="userSpaceOnUse">
<stop stop-color="#1CB0BF"/>
<stop offset="1" stop-color="#4472C4"/>
</linearGradient>
</defs>
</svg>
